<svg width="1200" height="700" viewBox="0 0 1200 700" fill="none" xmlns="http://www.w3.org/2000/svg">
  <rect width="1200" height="700" rx="44" fill="#0F172A"/>
  <path d="M189 146C275 86 387 78 472 132C551 182 643 205 732 187C827 167 934 190 1015 260C1087 323 1122 419 1108 510C1090 628 977 659 845 635C757 619 678 578 593 560C475 536 338 596 239 542C137 486 105 377 121 285C132 224 151 180 189 146Z" fill="#111827" stroke="#334155" stroke-width="3"/>
  <circle cx="373" cy="246" r="18" fill="#F97316"/>
  <circle cx="565" cy="318" r="18" fill="#0EA5E9"/>
  <circle cx="704" cy="260" r="18" fill="#FACC15"/>
  <circle cx="808" cy="416" r="18" fill="#10B981"/>
  <circle cx="465" cy="446" r="18" fill="#FB7185"/>
  <path d="M373 246L565 318L704 260L808 416L465 446L373 246Z" stroke="#94A3B8" stroke-width="4" stroke-dasharray="10 12"/>
  <text x="96" y="88" fill="#fff" font-family="Arial, sans-serif" font-size="46" font-weight="700">E-Malla service network</text>
  <text x="96" y="132" fill="#CBD5E1" font-family="Arial, sans-serif" font-size="24">Connected merchant hubs, support desks, and delivery coverage across Rwanda.</text>
  <rect x="86" y="562" width="1028" height="88" rx="24" fill="#111827" stroke="#334155"/>
  <text x="124" y="614" fill="#F8FAFC" font-family="Arial, sans-serif" font-size="24">Operations are coordinated through admin approvals, merchant onboarding, and rider logistics.</text>
</svg>
