<svg xmlns="http://www.w3.org/2000/svg" viewBox="0 0 440 210" role="img" aria-labelledby="title">
  <title id="title">Sai's OfficePoint</title>
  <g fill="#c83b31">
    <path d="M175 19a29 29 0 0 1 41 0l50 50a29 29 0 0 1 0 41l-21 21c-15-12-31-18-50-18s-35 6-50 18l-21-21a29 29 0 0 1 0-41l51-50Z"/>
    <path d="M156 145c11-10 24-15 39-15s28 5 39 15l-14 14c-7-6-15-9-25-9s-18 3-25 9l-14-14Z"/>
    <path d="m176 165 19 19 19-19c-5-4-12-6-19-6s-14 2-19 6Z"/>
    <text x="80" y="148" font-family="Arial, Helvetica, sans-serif" font-size="31" font-weight="400">sai's</text>
    <text x="19" y="198" font-family="Arial, Helvetica, sans-serif" font-size="69" font-weight="400" letter-spacing="-5">officepoint</text>
    <text x="407" y="191" font-family="Arial, Helvetica, sans-serif" font-size="27" font-weight="700">&#174;</text>
  </g>
</svg>
